# xmcd
#
# Track frame offsets: 
#        150
#        14420
#        28327
#        42375
#        55585
#        69007
#        81270
#        95515
#        108697
#        122622
#        135545
#        150820
#        164662
#        178165
#        191047
#        203825
#        216630
#        229190
#        242007
#        254157
#        268442
#        283250
#        296425
#        312242
#
# Disc length: 4346 seconds
#
# Revision: 2
# Processed by: cddbd v1.5.2PL0 Copyright (c) Steve Scherf et al.
# Submitted via: ExactAudioCopy v0.99pb4
#
DISCID=7210f818
DTITLE=Roosevelt Sykes - Complete Recorded Works - Vol. 2
DYEAR=1930
DGENRE=Blues
TTITLE0=32-20 Blues
TTITLE1=Give Me Your Change
TTITLE2=I Love You More And More
TTITLE3=Kelly's 44 Blues
TTITLE4=3, 6 And 9
TTITLE5=We Can Sell That Thing
TTITLE6=Conjur Man Blues
TTITLE7=Cotton Seed Blues
TTITLE8=No Good Woman Blues
TTITLE9=Drinkin' Woman Blues
TTITLE10=Papa Sweetback Blues
TTITLE11=He Treats Me Like A Dog (St. Louis Bessie, vcl.)
TTITLE12=Meat Cutter Blues (St. Louis Bessie, vcl.)
TTITLE13=Side Door Blues
TTITLE14=Bit Time Woman
TTITLE15=Thanksgivin' Blues
TTITLE16=Kelly's Special
TTITLE17=Don't Put The Lights Out
TTITLE18=No Settled Mind Blues
TTITLE19=As True As I've Been To You
TTITLE20=Hard Luck Man Blues
TTITLE21=Don't Squeeze Me Too TIght
TTITLE22=You So Dumb
TTITLE23=Nasty But It's Clean
EXTD=Complete Recorded Workds In Chronological Order\nVol. 2 - 12 June
EXTD=1930 to 10 June 1931\n\nSee Also: http://www.document-records.co
EXTD=uk/\nDocument Records\nDOCD-5117\n
EXTT0=
EXTT1=
EXTT2=
EXTT3=
EXTT4=
EXTT5=
EXTT6=
EXTT7=
EXTT8=
EXTT9=
EXTT10=
EXTT11=
EXTT12=
EXTT13=
EXTT14=
EXTT15=
EXTT16=
EXTT17=
EXTT18=
EXTT19=
EXTT20=
EXTT21=
EXTT22=
EXTT23=
PLAYORDER=
